<svg width="96" height="96" viewBox="0 0 96 96" fill="none" xmlns="http://www.w3.org/2000/svg">
  <rect width="96" height="96" rx="24" fill="#FFF5E6"/>
  <circle cx="48" cy="37" r="17" fill="#F1C3A3"/>
  <path d="M25 76C25 60.536 37.536 48 53 48H57C68.0457 48 77 56.9543 77 68V76H25Z" fill="#D97706"/>
  <path d="M29 33C29 20.2975 39.2975 10 52 10C61.6502 10 69.9118 15.9464 73.3141 24.3667C69.0774 22.1458 63.9389 21 58 21C45.4728 21 36.5094 26.2985 31.3175 32.5237C29.8253 35.2447 29 38.3705 29 41.6897V33Z" fill="#7C2D12"/>
  <circle cx="42" cy="39" r="2" fill="#1F2937"/>
  <circle cx="55" cy="39" r="2" fill="#1F2937"/>
  <path d="M42 47C43.813 49.4387 46.3546 50.6581 49 50.6581C51.6454 50.6581 54.187 49.4387 56 47" stroke="#9A3412" stroke-width="2.2" stroke-linecap="round"/>
</svg>
