<svg width="96" height="96" viewBox="0 0 96 96" fill="none" xmlns="http://www.w3.org/2000/svg">
  <rect width="96" height="96" rx="24" fill="#ECFDF3"/>
  <circle cx="48" cy="36" r="18" fill="#E6B390"/>
  <path d="M26 76C26 60.536 38.536 48 54 48H56C67.0457 48 76 56.9543 76 68V76H26Z" fill="#0F766E"/>
  <path d="M30 30C30 19.5066 38.5066 11 49 11H51C61.4934 11 70 19.5066 70 30V32C64.807 26.9415 57.7084 24 50 24C42.371 24 35.3355 26.8901 30.1721 31.8498C30.0582 31.2404 30 30.6248 30 30Z" fill="#334155"/>
  <circle cx="42" cy="38" r="2" fill="#1F2937"/>
  <circle cx="56" cy="38" r="2" fill="#1F2937"/>
  <path d="M42 47C43.7453 49.0647 46.0101 50.0971 48.5 50.0971C50.9899 50.0971 53.2547 49.0647 55 47" stroke="#9A3412" stroke-width="2.2" stroke-linecap="round"/>
</svg>
