<svg width="96" height="96" viewBox="0 0 96 96" fill="none" xmlns="http://www.w3.org/2000/svg">
  <rect width="96" height="96" rx="24" fill="#E7F0FF"/>
  <circle cx="48" cy="37" r="18" fill="#E9B48F"/>
  <path d="M27 76C27 61.0883 39.0883 49 54 49H56C67.0457 49 76 57.9543 76 69V76H27Z" fill="#2B6CB0"/>
  <path d="M31 30C31 19.5066 39.5066 11 50 11C58.0374 11 64.9096 15.9877 67.6833 23.0245C65.0244 22.3457 61.8172 22 58 22C46.5866 22 38.6967 25.0845 33.6119 28.8423C31.9811 31.4289 31 34.495 31 37.79V30Z" fill="#243B53"/>
  <circle cx="42" cy="39" r="2" fill="#1F2937"/>
  <circle cx="56" cy="39" r="2" fill="#1F2937"/>
  <path d="M42 47C43.7453 49.0647 46.0101 50.0971 48.5 50.0971C50.9899 50.0971 53.2547 49.0647 55 47" stroke="#9A3412" stroke-width="2.2" stroke-linecap="round"/>
</svg>
