<svg width="96" height="96" viewBox="0 0 96 96" fill="none" xmlns="http://www.w3.org/2000/svg">
  <rect width="96" height="96" rx="24" fill="#EEF4FF"/>
  <circle cx="48" cy="37" r="17" fill="#F3C7A4"/>
  <path d="M24 76C24 60.536 36.536 48 52 48H57C68.0457 48 77 56.9543 77 68V76H24Z" fill="#4C6FFF"/>
  <path d="M31 41C28.4285 37.9033 27 33.9824 27 29.9286C27 19.4746 35.4746 11 45.9286 11H50.0714C60.5254 11 69 19.4746 69 29.9286C69 34.1653 67.6086 38.077 65.2572 41.2334C64.5314 32.356 57.1142 25.3571 48 25.3571C38.7507 25.3571 31.2465 32.5651 31 41Z" fill="#233876"/>
  <circle cx="42" cy="39" r="2" fill="#1F2937"/>
  <circle cx="55" cy="39" r="2" fill="#1F2937"/>
  <path d="M42 47C43.813 49.4387 46.3546 50.6581 49 50.6581C51.6454 50.6581 54.187 49.4387 56 47" stroke="#9A3412" stroke-width="2.2" stroke-linecap="round"/>
</svg>
