<svg width="96" height="96" viewBox="0 0 96 96" fill="none" xmlns="http://www.w3.org/2000/svg">
  <rect width="96" height="96" rx="24" fill="#DFF7F8"/>
  <circle cx="48" cy="36" r="18" fill="#F6C7A7"/>
  <path d="M28 76C28 61.6406 39.6406 50 54 50H58C69.0457 50 78 58.9543 78 70V76H28Z" fill="#1C7ED6"/>
  <path d="M29 33C29 20.2975 39.2975 10 52 10C61.3137 10 69.3346 15.5404 72.9813 23.5109C68.8303 21.5406 63.3265 20 56 20C43.8631 20 35.0823 24.2326 29.9974 28.9758C29.3486 30.241 29 31.6754 29 33Z" fill="#0F4C81"/>
  <circle cx="41" cy="38" r="2" fill="#1F2937"/>
  <circle cx="55" cy="38" r="2" fill="#1F2937"/>
  <path d="M41 46C42.813 48.4387 45.3546 49.6581 48 49.6581C50.6454 49.6581 53.187 48.4387 55 46" stroke="#9A3412" stroke-width="2.2" stroke-linecap="round"/>
</svg>
